<?xml version="1.0" encoding="utf-8"?>
<!-- Generator: Adobe Illustrator 24.1.1, SVG Export Plug-In . SVG Version: 6.00 Build 0)  -->
<svg version="1.1" id="artwork" xmlns="http://www.w3.org/2000/svg" xmlns:xlink="http://www.w3.org/1999/xlink" x="0px" y="0px"
	 viewBox="0 0 500 500" style="enable-background:new 0 0 500 500;" xml:space="preserve">
<style type="text/css">
	.st0{fill:#34A853;}
	.st1{fill:#4285F4;}
	.st2{fill:#EA4335;}
	.st3{fill:#FBBC04;}
	.st4{fill:#5F6368;}
</style>
<g>
	<path class="st0" d="M74.12,194.33H12.41c-6.84,0-12.4,5.57-12.4,12.4v64.35c0-1.66,0.59-3.22,1.76-4.39L74.12,194.33z"/>
	<path class="st1" d="M168.95,322.07H12.41c-6.84,0-12.4-5.57-12.4-12.4v-38.67c0-1.66,0.59-3.22,1.76-4.39l87.11-86.91
		c1.17-1.17,2.83-1.86,4.59-1.76h75.49c6.84,0,12.4,5.57,12.4,12.4v119.53C181.25,316.6,175.78,322.07,168.95,322.07z"/>
	<path class="st2" d="M88.87,179.69L1.76,266.7c-1.17,1.17-1.86,2.73-1.76,4.39v0.49c0-1.66,1.37-3.03,3.03-3.12h75.19
		c6.84,0,12.4-5.57,12.4-12.4v-75.19c0-1.76,1.37-3.12,3.12-3.12h-0.29C91.7,177.83,90.04,178.51,88.87,179.69z"/>
	<path class="st3" d="M0,271.58c0-2.44,1.56-4.59,3.91-5.37l54.98-17.48c5.66-1.86,10.16-6.35,12.01-12.01l17.48-54.88
		c0.78-2.34,2.93-3.91,5.37-3.91h-0.29c-1.66,0-3.22,0.68-4.39,1.76L1.76,266.7c-1.17,1.17-1.86,2.73-1.76,4.39V271.58z"/>
	<path class="st4" d="M276.46,256.54v39.84h-11.91v-92.97h54.3v11.33h-42.38v30.57h38.18v11.33h-38.18V256.54z M344.43,210.84
		c0,4.69-3.81,8.5-8.5,8.5c-4.69,0-8.5-3.81-8.5-8.5c0-2.25,0.88-4.39,2.44-5.96c3.32-3.22,8.59-3.22,11.91,0
		C343.55,206.35,344.43,208.59,344.43,210.84z M341.89,232.81v63.67h-11.82v-63.67L341.89,232.81L341.89,232.81z M368.16,203.42
		v92.97h-12.01v-92.97H368.16z M410.64,298.53c-8.69,0.29-17.19-3.22-23.14-9.67c-6.15-6.54-9.37-15.33-9.08-24.32
		c-0.29-8.89,2.73-17.58,8.59-24.22c5.76-6.35,13.96-9.86,22.56-9.67c8.5-0.39,16.8,2.93,22.56,9.18c5.96,7.13,8.98,16.31,8.4,25.68
		v1.27h-49.9c-0.1,5.66,2.15,11.13,6.25,15.04c8.01,7.71,20.7,7.62,28.52-0.39c1.46-1.56,2.73-3.32,3.71-5.27l10.64,5.18
		c-2.73,5.18-6.84,9.57-11.91,12.6C422.65,297.07,416.7,298.63,410.64,298.53z M391.6,256.93h36.52c-0.29-4.3-2.34-8.3-5.66-11.03
		c-3.61-3.03-8.11-4.59-12.79-4.49c-4.3-0.1-8.4,1.37-11.62,4.2C394.72,248.63,392.38,252.54,391.6,256.93z M500,278.71
		c0,5.57-2.73,10.84-7.32,13.96c-5.27,3.91-11.72,5.96-18.26,5.66c-6.05,0.1-11.91-1.66-16.89-4.98c-4.79-3.22-8.4-7.81-10.35-13.18
		l10.64-4.59c1.37,3.61,3.71,6.64,6.84,8.89c5.76,4,13.28,4.2,19.34,0.68c2.15-1.07,3.61-3.22,3.81-5.66c0-4.1-3.12-7.03-9.37-8.98
		l-10.94-2.73c-12.4-3.12-18.55-9.08-18.55-17.97c-0.2-5.57,2.44-10.84,6.93-14.16c10.06-6.54,22.85-7.03,33.4-1.27
		c4.3,2.44,7.62,6.25,9.57,10.74l-10.64,4.39c-1.17-2.64-3.12-4.79-5.66-6.25c-2.83-1.56-5.96-2.34-9.18-2.25
		c-2.93-0.1-5.86,0.78-8.4,2.34c-2.15,1.07-3.61,3.22-3.71,5.66c0,3.71,3.42,6.25,10.25,7.81l9.57,2.44
		C493.65,262.5,500,268.94,500,278.71z"/>
</g>
</svg>
